<svg width="512" height="512" viewBox="0 0 512 512" fill="none" xmlns="http://www.w3.org/2000/svg" xmlns:xlink="http://www.w3.org/1999/xlink" class=""><rect id="r4" width="512" height="512" x="0" y="0" rx="" fill="url(#r5)" stroke="#FFFFFF" stroke-width="0" stroke-opacity="100%" paint-order="stroke"></rect><clipPath id="clip"><use xlink:href="#r4"></use></clipPath><defs><linearGradient id="r5" gradientUnits="userSpaceOnUse" gradientTransform="rotate(45)" style="transform-origin: center center;"><stop stop-color="#FF7DB4"></stop><stop offset="1" stop-color="#654EA3"></stop></linearGradient><radialGradient id="r6" cx="0" cy="0" r="1" gradientUnits="userSpaceOnUse" gradientTransform="translate(256) rotate(90) scale(512)"><stop stop-color="white"></stop><stop offset="1" stop-color="white" stop-opacity="0"></stop></radialGradient></defs><svg xmlns="http://www.w3.org/2000/svg" width="352" height="352" viewBox="0 0 256 256" x="80" y="80" alignment-baseline="middle" style="color: rgb(255, 255, 255);"><path fill="currentColor" d="M232 96a7.89 7.89 0 0 0-.3-2.2l-14.35-50.2A16.07 16.07 0 0 0 202 32H54a16.07 16.07 0 0 0-15.35 11.6L24.31 93.8A7.89 7.89 0 0 0 24 96v16a40 40 0 0 0 16 32v64a16 16 0 0 0 16 16h144a16 16 0 0 0 16-16v-64a40 40 0 0 0 16-32ZM54 48h148l11.42 40H42.61Zm50 56h48v8a24 24 0 0 1-48 0Zm-16 0v8a24 24 0 0 1-48 0v-8Zm112 104H56v-56.8a40.57 40.57 0 0 0 8 .8a40 40 0 0 0 32-16a40 40 0 0 0 64 0a40 40 0 0 0 32 16a40.57 40.57 0 0 0 8-.8Zm-8-72a24 24 0 0 1-24-24v-8h48v8a24 24 0 0 1-24 24Z"></path></svg></svg>